<svg xmlns="http://www.w3.org/2000/svg" width="40mm" height="64.374" viewBox="0 0 40 17.032" shape-rendering="geometricPrecision" text-rendering="geometricPrecision" image-rendering="optimizeQuality" fill-rule="evenodd" clip-rule="evenodd"><path d="M33.523 5.922h-1.768v3.883c0 .485.075.925.227 1.316.15.391.375.734.672 1.031.297.297.642.52 1.033.664a3.7 3.7 0 0 0 1.314.22c.485 0 .927-.072 1.323-.22a2.842 2.842 0 0 0 1.039-.664c.297-.297.519-.64.664-1.031.147-.391.22-.83.22-1.316V5.922h-1.768v3.752c0 .254-.032.483-.1.686-.067.203-.168.38-.306.532-.137.159-.294.28-.47.36-.177.079-.377.118-.602.118-.225 0-.425-.04-.601-.119-.177-.08-.334-.2-.471-.36a1.473 1.473 0 0 1-.307-.53 2.241 2.241 0 0 1-.099-.686V5.921zm-12.732 5.477c-.268 0-.513-.05-.73-.15a1.82 1.82 0 0 1-.589-.444 2.013 2.013 0 0 1-.403-.645 2.189 2.189 0 0 1-.133-.775c0-.283.045-.541.133-.775.088-.234.224-.448.403-.645.176-.194.37-.34.59-.437.217-.096.46-.143.729-.143.26 0 .5.046.717.143.217.096.413.241.587.437.173.195.304.41.39.645.087.233.131.492.131.775 0 .282-.044.54-.13.775-.087.234-.218.45-.391.645a1.78 1.78 0 0 1-.587.444c-.217.1-.457.15-.717.15zm1.825 1.463H24.4v-6.94h-1.783v.695a2.537 2.537 0 0 0-.922-.671 3.018 3.018 0 0 0-1.193-.227c-.478 0-.916.087-1.314.26a3.086 3.086 0 0 0-1.062.783 3.629 3.629 0 0 0-.717 1.188 4.21 4.21 0 0 0-.24 1.45c0 .528.081 1.014.242 1.453.16.436.407.825.73 1.169.321.343.673.608 1.067.782.39.173.823.26 1.294.26.434 0 .829-.079 1.183-.238.353-.159.664-.399.932-.717v.753zm-10.295-2.376c0 .413.052.78.155 1.099.102.318.26.587.468.813.204.223.444.393.727.503.28.109.599.164.954.164a3.09 3.09 0 0 0 1.062-.174 2.33 2.33 0 0 0 .836-.522l-.797-1.318a.975.975 0 0 1-.357.26 1.157 1.157 0 0 1-.454.088c-.268 0-.468-.082-.6-.242-.13-.16-.197-.403-.197-.73v-2.94H12.32v2.999zm1.797-4.564V4.125H12.32v1.797h1.797zm-5.945 6.94h1.768v-6.94H8.173v6.94zm.87-7.882c.29 0 .534-.105.739-.304a.98.98 0 0 0 .227-.324c.05-.122.077-.256.077-.4 0-.276-.099-.527-.304-.74a.989.989 0 0 0-.74-.304.975.975 0 0 0-.724.304 1.042 1.042 0 0 0-.304.74.962.962 0 0 0 .304.724 1.016 1.016 0 0 0 .724.304zM7.069 2.112a2.269 2.269 0 0 0-.477-.237 3.402 3.402 0 0 0-1.161-.184c-.391 0-.744.063-1.053.186a2.107 2.107 0 0 0-.802.567 2.54 2.54 0 0 0-.51.894 3.762 3.762 0 0 0-.17 1.178v1.406h1.767v-1.42c0-.181.023-.345.065-.488.042-.14.11-.267.196-.367a.78.78 0 0 1 .292-.215c.115-.048.251-.075.403-.075.248 0 .47.056.668.17l.782-1.415zM2.895 7.487v5.375h1.768V7.487H2.895zm23.5 2.999c0 .413.051.78.154 1.099.102.318.26.587.468.813.205.223.445.393.727.503.28.109.6.164.954.164a3.09 3.09 0 0 0 1.063-.174c.318-.116.596-.29.835-.522l-.797-1.318a.974.974 0 0 1-.357.26 1.157 1.157 0 0 1-.454.088c-.268 0-.468-.082-.599-.242-.131-.16-.198-.403-.198-.73v-2.94h-1.797v2.999zm1.796-4.564V4.125h-1.797v1.797h1.797z" fill-rule="nonzero"/><path fill="#ff8700" d="M12.321 5.922h3.66v1.565h-3.66z"/><path fill="#24bd31" d="M2.895 5.922h3.66v1.565h-3.66z"/><path fill="red" d="M26.394 5.922h3.66v1.565h-3.66z"/></svg>